<svg xmlns="http://www.w3.org/2000/svg">

<symbol id="chat" viewBox="0 0 24 24">
    <path fill-rule="evenodd" clip-rule="evenodd" d="M6 21.8042L12.0868 18H20C21.1046 18 22 17.1046 22 16V4C22 2.89543 21.1046 2 20 2H4C2.89543 2 2 2.89543 2 4V16C2 17.1046 2.89543 18 4 18H6V21.8042ZM11.5132 16L8 18.1958V16H4V4H20V16H11.5132ZM7 13V11H14V13H7ZM7 7V9H16V7H7Z"/>
</symbol>

<symbol id="gift" viewBox="0 0 24 24">
    <path fill-rule="evenodd" clip-rule="evenodd" d="M5.49704 7C5.16883 6.46338 5 5.80285 5 5C5 3.41709 6.19035 2 8 2C9.81199 2 11.2733 3.21363 12 5.11383C12.7267 3.21363 14.188 2 16 2C17.8096 2 19 3.41709 19 5C19 5.80285 18.8312 6.46338 18.503 7H20C21.1046 7 22 7.89543 22 9V11C22 12.1046 21.1046 13 20 13V20C20 21.1046 19.1046 22 18 22H6C4.89543 22 4 21.1046 4 20V13C2.89543 13 2 12.1046 2 11V9C2 7.89543 2.89543 7 4 7H5.49704ZM11 9H4V11H11V9ZM20 11H13V9H20V11ZM11 20V13H6V20H11ZM18 20H13V13H18V20ZM8 4C7.37965 4 7 4.45196 7 5C7 6.25323 8.017 6.84912 10.4294 6.97449C10.1613 5.1116 9.16218 4 8 4ZM13.5 6.97449C13.7681 5.1116 14.7672 4 15.9294 4C16.5498 4 16.9294 4.45196 16.9294 5C16.9294 6.25323 15.9124 6.84912 13.5 6.97449Z"/>
</symbol>

<symbol id="eye" viewBox="0 0 24 24">
    <path fill-rule="evenodd" clip-rule="evenodd" d="M12 4C14.7275 4 17.3357 5.43062 19.7663 7.78115C20.5955 8.58305 21.3457 9.43916 22.0061 10.2956C22.4046 10.8124 22.6875 11.219 22.8424 11.4612L23.187 12L22.8424 12.5388C22.6875 12.781 22.4046 13.1876 22.0061 13.7044C21.3457 14.5608 20.5955 15.417 19.7663 16.2188C17.3357 18.5694 14.7275 20 12 20C9.27245 20 6.66432 18.5694 4.23371 16.2188C3.40449 15.417 2.65431 14.5608 1.99391 13.7044C1.59541 13.1876 1.31247 12.781 1.15756 12.5388L0.812965 12L1.15756 11.4612C1.31247 11.219 1.59541 10.8124 1.99391 10.2956C2.65431 9.43916 3.40449 8.58305 4.23371 7.78115C6.66432 5.43062 9.27245 4 12 4ZM20.4223 11.5169C19.8176 10.7327 19.1302 9.9482 18.376 9.21885C16.2825 7.19438 14.1051 6 12 6C9.89492 6 7.71749 7.19438 5.62404 9.21885C4.86984 9.9482 4.18239 10.7327 3.57775 11.5169C3.44716 11.6862 3.32649 11.8478 3.21617 12C3.32649 12.1522 3.44716 12.3138 3.57775 12.4831C4.18239 13.2673 4.86984 14.0518 5.62404 14.7811C7.71749 16.8056 9.89492 18 12 18C14.1051 18 16.2825 16.8056 18.376 14.7811C19.1302 14.0518 19.8176 13.2673 20.4223 12.4831C20.5528 12.3138 20.6735 12.1522 20.7838 12C20.6735 11.8478 20.5528 11.6862 20.4223 11.5169ZM8 12C8 14.2091 9.79086 16 12 16C14.2091 16 16 14.2091 16 12C16 9.79086 14.2091 8 12 8C9.79086 8 8 9.79086 8 12ZM14 12C14 13.1046 13.1046 14 12 14C10.8954 14 10 13.1046 10 12C10 10.8954 10.8954 10 12 10C13.1046 10 14 10.8954 14 12Z"/>
</symbol>

<symbol id="gear" viewBox="0 0 22 22">
    <path fill-rule="evenodd" clip-rule="evenodd" d="M11 15C8.79086 15 7 13.2091 7 11C7 8.79086 8.79086 7 11 7C13.2091 7 15 8.79086 15 11C15 13.2091 13.2091 15 11 15ZM13 11C13 12.1046 12.1046 13 11 13C9.89543 13 9 12.1046 9 11C9 9.89543 9.89543 9 11 9C12.1046 9 13 9.89543 13 11Z"/>
    <path fill-rule="evenodd" clip-rule="evenodd" d="M17.6562 19.897L19.8733 17.6798L19.0925 14.843L19.4327 14.0305L22 12.5818V9.44645L19.44 7.99173L19.1055 7.18067L19.8961 4.34235L17.6774 2.12683L14.8403 2.90748L14.0296 2.56758L12.5808 0H9.44544L7.99072 2.56004L7.17985 2.89446L4.34198 2.10281L2.1267 4.31809L2.90748 7.15567L2.56758 7.96634L0 9.41514V12.5496L2.55774 14.0076L2.89252 14.8193L2.10197 17.6572L4.31809 19.8733L7.15567 19.0925L7.96644 19.4325L9.41527 21.999H12.5498L14.0067 19.4412L14.8183 19.1065L17.6562 19.897ZM17.8527 12.6256L16.9809 14.7078L17.6362 17.0886L17.0678 17.657L14.692 16.9951L12.609 17.8542L11.3873 19.999H10.5829L9.37141 17.8529L7.29155 16.9808L4.90947 17.6362L4.34203 17.0688L5.00385 14.693L4.14482 12.6101L2 11.3876V10.583L4.1471 9.3715L5.0192 7.29155L4.36375 4.90947L4.93001 4.34321L7.30576 5.00595L9.38955 4.14655L10.6093 2H11.4129L12.6245 4.1471L14.7044 5.0192L17.087 4.36362L17.6558 4.93166L16.9941 7.30696L17.8534 9.39056L20 10.6103V11.4139L17.8527 12.6256Z"/>
</symbol>

<symbol id="heart" viewBox="0 0 24 24">
    <path fill-rule="evenodd" clip-rule="evenodd" d="M16.5532 2.00002C15.1056 2 14.1724 2.17246 13.1027 2.69607C12.7066 2.88993 12.335 3.12339 11.99 3.39576C11.6582 3.13866 11.3015 2.91592 10.9218 2.72813C9.83132 2.18878 8.85028 2 7.45455 2C3.71644 2 1 5.09727 1 9.11988C1 12.1578 2.69383 15.0923 5.84884 17.9299C7.50489 19.4193 9.61932 20.8933 11.1336 21.6775L12 22.1261L12.8664 21.6775C14.3807 20.8933 16.4951 19.4193 18.1512 17.9299C21.3062 15.0923 23 12.1578 23 9.11988C23 5.13984 20.2579 2.01536 16.5532 2.00002ZM21 9.11988C21 11.4999 19.5862 13.9493 16.8137 16.4429C15.3022 17.8023 13.359 19.1609 12 19.8737C10.641 19.1609 8.69782 17.8023 7.18628 16.4429C4.41382 13.9493 3 11.4999 3 9.11988C3 6.14772 4.88364 4 7.45455 4C8.56428 4 9.24813 4.13159 10.0351 4.52084C10.5 4.75077 10.9109 5.05437 11.2665 5.43377L12.0023 6.2187L12.7315 5.42755C13.0951 5.03295 13.512 4.72244 13.9819 4.49243C14.7459 4.11849 15.387 4 16.5491 4.00001C19.0882 4.01053 21 6.18896 21 9.11988Z"/>
</symbol>

<symbol id="profile" viewBox="0 0 23 22">
    <path fill-rule="evenodd" clip-rule="evenodd" d="M11.187 14C8.94788 14 7.18701 12.4274 7.18701 9C7.18701 6.75576 8.76611 5 11.187 5C13.6012 5 15.187 6.92158 15.187 9.2C15.187 12.4796 13.4051 14 11.187 14ZM9.18701 9C9.18701 11.2693 10.0052 12 11.187 12C12.3647 12 13.187 11.2984 13.187 9.2C13.187 7.95042 12.4027 7 11.187 7C9.92075 7 9.18701 7.81582 9.18701 9Z"/>
    <path fill-rule="evenodd" clip-rule="evenodd" d="M11.187 22C5.11188 22 0.187012 17.0751 0.187012 11C0.187012 4.92487 5.11188 0 11.187 0C17.2621 0 22.187 4.92487 22.187 11C22.187 17.0751 17.2621 22 11.187 22ZM18.5865 16.1246C19.5956 14.6703 20.187 12.9042 20.187 11C20.187 6.02944 16.1576 2 11.187 2C6.21645 2 2.18701 6.02944 2.18701 11C2.18701 12.9042 2.77839 14.6703 3.78752 16.1246C4.91296 14.6381 7.55761 14 11.187 14C14.8164 14 17.4611 14.6381 18.5865 16.1246ZM17.1517 17.7398C16.859 16.6874 14.7564 16 11.187 16C7.61763 16 5.51502 16.6874 5.22233 17.7398C6.81031 19.1462 8.89895 20 11.187 20C13.4751 20 15.5637 19.1462 17.1517 17.7398Z"/>
</symbol>

<symbol id="camera" viewBox="0 0 23 18">
    <path d="M19.187 7C19.187 7.55228 18.7393 8 18.187 8C17.6347 8 17.187 7.55228 17.187 7C17.187 6.44772 17.6347 6 18.187 6C18.7393 6 19.187 6.44772 19.187 7Z"/>
    <path fill-rule="evenodd" clip-rule="evenodd" d="M6.18701 10C6.18701 12.7614 8.42559 15 11.187 15C13.9484 15 16.187 12.7614 16.187 10C16.187 7.23858 13.9484 5 11.187 5C8.42559 5 6.18701 7.23858 6.18701 10ZM14.187 10C14.187 11.6569 12.8439 13 11.187 13C9.53016 13 8.18701 11.6569 8.18701 10C8.18701 8.34315 9.53016 7 11.187 7C12.8439 7 14.187 8.34315 14.187 10Z"/>
    <path fill-rule="evenodd" clip-rule="evenodd" d="M6.12403 2.84538C6.19488 2.74688 6.27357 2.62631 6.37391 2.46372C6.41056 2.40433 6.5105 2.23944 6.58493 2.11665L6.66881 1.97841C7.4978 0.622387 8.10041 0 9.18701 0H13.187C14.2736 0 14.8762 0.622387 15.7052 1.97841L15.7891 2.11664C15.8635 2.23943 15.9635 2.40433 16.0001 2.46372C16.1005 2.62631 16.1791 2.74688 16.25 2.84538C16.2967 2.91033 16.3375 2.96194 16.3708 3H19.187C20.8439 3 22.187 4.34315 22.187 6V15C22.187 16.6569 20.8439 18 19.187 18H3.18701C1.53016 18 0.187012 16.6569 0.187012 15V6C0.187012 4.34315 1.53016 3 3.18701 3H6.00321C6.0365 2.96194 6.07731 2.91033 6.12403 2.84538ZM3.18701 5C2.63473 5 2.18701 5.44772 2.18701 6V15C2.18701 15.5523 2.63473 16 3.18701 16H19.187C19.7393 16 20.187 15.5523 20.187 15V6C20.187 5.44772 19.7393 5 19.187 5H16.187C15.5227 5 15.0746 4.63641 14.6264 4.01326C14.5233 3.86988 14.4211 3.71332 14.2981 3.51409C14.256 3.44583 14.1466 3.26536 14.0716 3.14152L13.9988 3.02159C13.5465 2.28172 13.2737 2 13.187 2H9.18701C9.10028 2 8.82751 2.28172 8.37521 3.02159L8.30244 3.14152C8.2274 3.26534 8.11793 3.44596 8.07588 3.51409C7.95293 3.71332 7.85076 3.86988 7.74763 4.01326C7.29938 4.63641 6.85135 5 6.18701 5H3.18701Z"/>
</symbol>

<symbol id="exit" viewBox="0 0 21 21">
    <path d="M7.4799 6.51033L10.7728 9.80322L0.187011 9.80322L0.187011 11.8032L10.7728 11.8032L7.4799 15.0961L8.89412 16.5103L14.6012 10.8032L8.89412 5.09612L7.4799 6.51033Z"/>
    <path d="M18.187 0.803222L14.187 0.803222L14.187 2.80322L18.187 2.80322L18.187 18.8032L14.187 18.8032L14.187 20.8032L18.187 20.8032C19.2916 20.8032 20.187 19.9078 20.187 18.8032L20.187 2.80322C20.187 1.69865 19.2916 0.803222 18.187 0.803222Z"/>
</symbol>



</svg>
